<svg width="64" height="60" viewBox="0 0 64 60" fill="none" xmlns="http://www.w3.org/2000/svg">
    <path d="M31.9968 59.382C49.2129 59.382 63.1694 46.2789 63.1694 30.1154C63.1694 13.9519 49.2129 0.848755 31.9968 0.848755C14.7807 0.848755 0.824219 13.9519 0.824219 30.1154C0.824219 46.2789 14.7807 59.382 31.9968 59.382Z" fill="#B56B09"/>
    <path d="M31.9968 56.4447C49.2129 56.4447 63.1694 43.9976 63.1694 28.6434C63.1694 13.2892 49.2129 0.842102 31.9968 0.842102C14.7807 0.842102 0.824219 13.2892 0.824219 28.6434C0.824219 43.9976 14.7807 56.4447 31.9968 56.4447Z" fill="#FFB421"/>
    <path d="M31.997 49.4058C46.042 49.4058 57.4276 39.6818 57.4276 27.6867C57.4276 15.6915 46.042 5.96753 31.997 5.96753C17.9521 5.96753 6.56641 15.6915 6.56641 27.6867C6.56641 39.6818 17.9521 49.4058 31.997 49.4058Z" fill="#FF970D"/>
    <path d="M60.138 15.723C58.0433 11.5478 54.3559 8.11533 50.5145 5.58612C46.546 2.97661 42.0354 1.20348 37.3575 0.42732C28.1557 -1.09155 18.5456 1.50458 11.3112 7.41946C7.34941 10.6646 4.05012 14.8599 2.12944 19.6306C2.06921 19.7778 2.31013 19.8782 2.38375 19.7377C6.65341 11.782 13.7204 5.56604 22.2799 2.67551C30.9396 -0.248475 40.5966 1.03621 48.4132 5.69986C50.6484 7.03807 52.7163 8.56363 54.6035 10.3702C56.4706 12.15 58.0634 14.0704 59.6629 16.0911C59.8837 16.3721 60.2785 16.0108 60.138 15.723Z" fill="#FFE12C"/>
    <path d="M37.6924 6.15481C33.2421 5.16454 28.3902 5.57269 24.0402 6.83061C19.6367 8.10191 15.5209 10.4304 12.2618 13.6622C12.1213 13.8027 12.3287 14.0034 12.476 13.8763C15.9091 10.9523 19.8977 8.7777 24.2276 7.52648C28.611 6.26187 33.0279 6.14812 37.5117 6.79715C37.92 6.85737 38.114 6.25518 37.6857 6.1615L37.6924 6.15481Z" fill="#B56B09"/>
    <path d="M52.2344 13.7692C50.8491 12.0229 48.8949 10.5642 46.9676 9.47359C46.0039 8.93161 45 8.45655 43.9627 8.06847C42.9656 7.70046 41.7744 7.26554 40.6969 7.25885C40.5631 7.25885 40.4961 7.45958 40.6233 7.5198C41.5468 7.94803 42.5841 8.17552 43.5344 8.55691C44.5985 8.98514 45.6291 9.46689 46.6263 10.0356C47.5899 10.591 48.5269 11.1999 49.4035 11.8824C50.2869 12.5648 51.0632 13.341 51.8864 14.0971C52.1206 14.3112 52.4151 13.9967 52.2277 13.7559L52.2344 13.7692Z" fill="#B56B09"/>
    <path d="M49.7451 43.2499C48.5137 43.8521 47.4229 44.8156 46.2183 45.4981C45.0271 46.1739 43.789 46.7761 42.5108 47.2712C39.9744 48.2615 37.3042 48.8838 34.5938 49.0979C31.7898 49.3187 28.9522 49.0845 26.2084 48.4555C24.89 48.1544 23.6051 47.753 22.3403 47.2645C20.9951 46.7426 19.7437 46.0334 18.4052 45.5115C18.2848 45.4646 18.1777 45.652 18.2781 45.7323C20.3995 47.4653 23.411 48.4221 26.0344 49.0644C28.8652 49.7536 31.8165 49.9878 34.721 49.7536C37.5384 49.5261 40.3157 48.857 42.9324 47.7931C44.1704 47.2913 45.3617 46.7092 46.5127 46.0267C47.6705 45.3442 49.0759 44.568 49.9258 43.5109C50.0396 43.3703 49.899 43.1696 49.7317 43.2566L49.7451 43.2499Z" fill="#FFE12C"/>
    <path d="M50.4814 21.6053L51.9953 25.1786L41.0528 29.8147L38.1525 22.9692L34.8443 31.464L25.7502 27.5674L28.8863 34.9694L18.1068 39.5364L16.5929 35.9631L23.8078 32.9063L18.4299 20.2132L32.6873 26.3219L37.998 12.6833L43.1026 24.7315L50.4814 21.6053Z" fill="#FFCE25"/>
</svg>
